/* XPM */
static char * bottom_right_active_xpm[] = {
"4 4 3 1",
" 	c None",
".	c #EEEEEE",
"+	c #6E85B0",
"...+",
"..+ ",
".+  ",
"+   "};
