/* XPM */
static char * bottom_left_active_xpm[] = {
"4 4 3 1",
" 	c None",
".	c #6E85B0",
"+	c #EEEEEE",
".+++",
" .++",
"  .+",
"   ."};
