/* XPM */
static char * close_active_xpm[] = {
"16 8 7 1",
" 	c None",
".	c #DCE7F0",
"+	c #D2DFEB",
"@	c #BDCFE1",
"#	c #BE1842",
"$	c #BE1A43",
"%	c #7DA4CE",
"................",
"++++++++++++++++",
"@##############@",
"$$$$$$$$$$$$$$$$",
"################",
"$$$$$$$$$$$$$$$$",
"$$$$$$$$$$$$$$$$",
"%%%%%%%%%%%%%%%%"};
