/* XPM */
static char * title_1_active_xpm[] = {
"8 8 4 1",
" 	c None",
".	c #6B82AE",
"+	c #92AFC9",
"@	c #627CAD",
"........",
"++++++++",
"++++++++",
"++++++++",
"++++++++",
"++++++++",
"++++++++",
"@@@@@@@@"};
