/* XPM */
static char * hide_active_xpm[] = {
"16 8 8 1",
" 	c None",
".	c #DCE7F0",
"+	c #D2DFEB",
"@	c #BDCFE1",
"#	c #509E04",
"$	c #4C9D00",
"%	c #4F9D02",
"&	c #7DA4CE",
"................",
"++++++++++++++++",
"@##############@",
"$$$$$$###$$#####",
"%%%%%%%%%%%%%%%%",
"################",
"################",
"&&&&&&&&&&&&&&&&"};
