/* XPM */
static char * left_active_xpm[] = {
"4 8 3 1",
" 	c None",
".	c #6E85B0",
"+	c #EEEEEE",
".+++",
".+++",
".+++",
".+++",
".+++",
".+++",
".+++",
".+++"};
