/* XPM */
static char * maximize_inactive_xpm[] = {
"17 8 7 1",
" 	c None",
".	c #6980AD",
"+	c #ACB7C9",
"@	c #EFEFEE",
"#	c #EEEEEE",
"$	c #BEC7D7",
"%	c #5E78A9",
".................",
"+++++++++++++++++",
"@@@@@@@@@@@@@@@@@",
"@@@@@@@@@@@@@@@@@",
"################@",
"@@@@@@@@@@@@@@@@@",
"$$$$$$$$$$$$$$$$$",
"%%%%%%%%%%%%%%%%%"};
