/* XPM */
static char * maximize_active_xpm[] = {
"16 8 8 1",
" 	c None",
".	c #DCE7F0",
"+	c #D2DFEB",
"@	c #BDCFE1",
"#	c #FF7700",
"$	c #FF7500",
"%	c #FF7800",
"&	c #7DA4CE",
"................",
"++++++++++++++++",
"@##############@",
"$$$$$$$#####$$$$",
"################",
"%%%%%%%%%%%%%%%%",
"%%%%%%%%%%%%%%%%",
"&&&&&&&&&&&&&&&&"};
