/* XPM */
static char * close_pressed_xpm[] = {
"16 8 5 1",
" 	c #DCE7F0",
".	c #D2DFEB",
"+	c #BDCFE1",
"@	c #6B86AD",
"#	c #7DA4CE",
"                ",
"................",
"+@@@@@@@@@@@@@@+",
"@@@@@@@@@@@@@@@@",
"@@@@@@@@@@@@@@@@",
"@@@@@@@@@@@@@@@@",
"@@@@@@@@@@@@@@@@",
"################"};
