/* XPM */
static char * menu_active_xpm[] = {
"17 8 6 1",
" 	c None",
".	c #6880AC",
"+	c #C1C9D8",
"@	c #EEEEEE",
"#	c #BEC7D7",
"$	c #5E78A9",
".................",
"+++++++++++++++++",
"@@@@@@@@@@@@@@@@@",
"@@@@@@@@@@@@@@@@@",
"@@@@@@@@@@@@@@@@@",
"@@@@@@@@@@@@@@@@@",
"#################",
"$$$$$$$$$$$$$$$$$"};
