/* XPM */
static char * right_active_xpm[] = {
"5 8 3 1",
" 	c None",
".	c #EEEEEE",
"+	c #6E85B0",
"....+",
"....+",
"....+",
"....+",
"....+",
"....+",
"....+",
"....+"};
