/* XPM */
static char * top_right_active_xpm[] = {
"8 8 20 1",
" 	c None",
".	c #DCE7F0",
"+	c #D2DFEA",
"@	c #D1DFEA",
"#	c #D1DEEA",
"$	c #D2DFEB",
"%	c #D0DDE9",
"&	c #BDCFE1",
"*	c #BCCEE1",
"=	c #BDCEE1",
"-	c #BCCDE0",
";	c #BBCDE1",
">	c #BBCCE0",
",	c #A0B5CB",
"'	c #9EB2C8",
")	c #A0B4CB",
"!	c #9EB3C8",
"~	c #9AADC0",
"{	c #677DA6",
"]	c #859DBE",
".....   ",
"+@#$#%  ",
"&*=--;> ",
",,')!!, ",
"~~~~~~~~",
"~~~~~~~~",
"~~~~~~~~",
"{{{{{{{]"};
