/* XPM */
static char * top_left_active_xpm[] = {
"8 8 20 1",
" 	c None",
".	c #DCE7F0",
"+	c #DBE6EF",
"@	c #D2DFEB",
"#	c #D1DFEB",
"$	c #D0DFEA",
"%	c #BCCEE1",
"&	c #BDCEE1",
"*	c #BCCDE0",
"=	c #BBCDE1",
"-	c #BCCDE1",
";	c #BBCCE0",
">	c #A0B5CC",
",	c #9EB3C9",
"'	c #A0B5CB",
")	c #9EB3C8",
"!	c #9CB1C5",
"~	c #9AADC0",
"{	c #6E85B0",
"]	c #677DA6",
"   ..+..",
"  @@@@#$",
" %&**=-;",
">>,',))!",
"~~~~~~~~",
"~~~~~~~~",
"~~~~~~~~",
"{]]]]]]]"};
