/* XPM */
static char * top_left_inactive_xpm[] = {
"8 8 4 1",
" 	c None",
".	c #6E85B0",
"+	c #D1D6DA",
"@	c #677DA6",
"   .....",
"  .+++++",
" .++++++",
" .++++++",
".+++++++",
".+++++++",
".+++++++",
".@@@@@@@"};
